<svg xmlns="http://www.w3.org/2000/svg" viewBox="0 0 360 360" width="360" height="360"><g fill="none" stroke="#000" stroke-linecap="round" stroke-linejoin="round"><g transform="translate(38.4 16.0) rotate(-7) scale(1.371) translate(-12 -12)" stroke-width="1.24"><path d="M16 10a4 4 0 0 1-8 0" /> <path d="M3.103 6.034h17.794" /> <path d="M3.4 5.467a2 2 0 0 0-.4 1.2V20a2 2 0 0 0 2 2h14a2 2 0 0 0 2-2V6.667a2 2 0 0 0-.4-1.2l-2-2.667A2 2 0 0 0 17 2H7a2 2 0 0 0-1.6.8z" /></g><g transform="translate(38.4 376.0) rotate(-7) scale(1.371) translate(-12 -12)" stroke-width="1.24"><path d="M16 10a4 4 0 0 1-8 0" /> <path d="M3.103 6.034h17.794" /> <path d="M3.4 5.467a2 2 0 0 0-.4 1.2V20a2 2 0 0 0 2 2h14a2 2 0 0 0 2-2V6.667a2 2 0 0 0-.4-1.2l-2-2.667A2 2 0 0 0 17 2H7a2 2 0 0 0-1.6.8z" /></g><g transform="translate(93.1 18.4) rotate(-3) scale(1.288) translate(-12 -12)" stroke-width="1.32"><path d="M12.586 2.586A2 2 0 0 0 11.172 2H4a2 2 0 0 0-2 2v7.172a2 2 0 0 0 .586 1.414l8.704 8.704a2.426 2.426 0 0 0 3.42 0l6.58-6.58a2.426 2.426 0 0 0 0-3.42z" /> <circle cx="7.5" cy="7.5" r=".5" fill="currentColor" /></g><g transform="translate(93.1 378.4) rotate(-3) scale(1.288) translate(-12 -12)" stroke-width="1.32"><path d="M12.586 2.586A2 2 0 0 0 11.172 2H4a2 2 0 0 0-2 2v7.172a2 2 0 0 0 .586 1.414l8.704 8.704a2.426 2.426 0 0 0 3.42 0l6.58-6.58a2.426 2.426 0 0 0 0-3.42z" /> <circle cx="7.5" cy="7.5" r=".5" fill="currentColor" /></g><g transform="translate(187.9 37.3) rotate(1) scale(1.462) translate(-12 -12)" stroke-width="1.16"><path d="M15 21v-5a1 1 0 0 0-1-1h-4a1 1 0 0 0-1 1v5" /> <path d="M17.774 10.31a1.12 1.12 0 0 0-1.549 0 2.5 2.5 0 0 1-3.451 0 1.12 1.12 0 0 0-1.548 0 2.5 2.5 0 0 1-3.452 0 1.12 1.12 0 0 0-1.549 0 2.5 2.5 0 0 1-3.77-3.248l2.889-4.184A2 2 0 0 1 7 2h10a2 2 0 0 1 1.653.873l2.895 4.192a2.5 2.5 0 0 1-3.774 3.244" /> <path d="M4 10.95V19a2 2 0 0 0 2 2h12a2 2 0 0 0 2-2v-8.05" /></g><g transform="translate(273.4 27.5) rotate(22) scale(1.241) translate(-12 -12)" stroke-width="1.37"><path d="M12 17V7" /> <path d="M16 8h-6a2 2 0 0 0 0 4h4a2 2 0 0 1 0 4H8" /> <path d="M4 3a1 1 0 0 1 1-1 1.3 1.3 0 0 1 .7.2l.933.6a1.3 1.3 0 0 0 1.4 0l.934-.6a1.3 1.3 0 0 1 1.4 0l.933.6a1.3 1.3 0 0 0 1.4 0l.933-.6a1.3 1.3 0 0 1 1.4 0l.934.6a1.3 1.3 0 0 0 1.4 0l.933-.6A1.3 1.3 0 0 1 19 2a1 1 0 0 1 1 1v18a1 1 0 0 1-1 1 1.3 1.3 0 0 1-.7-.2l-.933-.6a1.3 1.3 0 0 0-1.4 0l-.934.6a1.3 1.3 0 0 1-1.4 0l-.933-.6a1.3 1.3 0 0 0-1.4 0l-.933.6a1.3 1.3 0 0 1-1.4 0l-.934-.6a1.3 1.3 0 0 0-1.4 0l-.933.6a1.3 1.3 0 0 1-.7.2 1 1 0 0 1-1-1z" /></g><g transform="translate(308.6 49.9) rotate(0) scale(1.633) translate(-12 -12)" stroke-width="1.04"><path d="M19 7V4a1 1 0 0 0-1-1H5a2 2 0 0 0 0 4h15a1 1 0 0 1 1 1v4h-3a2 2 0 0 0 0 4h3a1 1 0 0 0 1-1v-2a1 1 0 0 0-1-1" /> <path d="M3 5v14a2 2 0 0 0 2 2h15a1 1 0 0 0 1-1v-4" /></g><g transform="translate(43.1 108.3) rotate(8) scale(1.586) translate(-12 -12)" stroke-width="1.07"><path d="M13.744 17.736a6 6 0 1 1-7.48-7.48" /> <path d="M15 6h1v4" /> <path d="m6.134 14.768.866-.5 2 3.464" /> <circle cx="16" cy="8" r="6" /></g><g transform="translate(90.6 88.5) rotate(-13) scale(1.165) translate(-12 -12)" stroke-width="1.46"><rect width="20" height="12" x="2" y="6" rx="2" /> <circle cx="12" cy="12" r="2" /> <path d="M6 12h.01M18 12h.01" /></g><g transform="translate(161.9 114.6) rotate(20) scale(1.297) translate(-12 -12)" stroke-width="1.31"><rect width="20" height="14" x="2" y="5" rx="2" /> <line x1="2" x2="22" y1="10" y2="10" /></g><g transform="translate(256.9 120.0) rotate(-21) scale(1.431) translate(-12 -12)" stroke-width="1.19"><path d="M12 7v14" /> <path d="M20 11v8a2 2 0 0 1-2 2H6a2 2 0 0 1-2-2v-8" /> <path d="M7.5 7a1 1 0 0 1 0-5A4.8 8 0 0 1 12 7a4.8 8 0 0 1 4.5-5 1 1 0 0 1 0 5" /> <rect x="3" y="7" width="18" height="4" rx="1" /></g><g transform="translate(313.9 91.7) rotate(-13) scale(1.543) translate(-12 -12)" stroke-width="1.10"><path d="M11.525 2.295a.53.53 0 0 1 .95 0l2.31 4.679a2.123 2.123 0 0 0 1.595 1.16l5.166.756a.53.53 0 0 1 .294.904l-3.736 3.638a2.123 2.123 0 0 0-.611 1.878l.882 5.14a.53.53 0 0 1-.771.56l-4.618-2.428a2.122 2.122 0 0 0-1.973 0L6.396 21.01a.53.53 0 0 1-.77-.56l.881-5.139a2.122 2.122 0 0 0-.611-1.879L2.16 9.795a.53.53 0 0 1 .294-.906l5.165-.755a2.122 2.122 0 0 0 1.597-1.16z" /></g><g transform="translate(35.8 197.4) rotate(18) scale(1.328) translate(-12 -12)" stroke-width="1.28"><path d="M2 9.5a5.5 5.5 0 0 1 9.591-3.676.56.56 0 0 0 .818 0A5.49 5.49 0 0 1 22 9.5c0 2.29-1.5 4-3 5.5l-5.492 5.313a2 2 0 0 1-3 .019L5 15c-1.5-1.5-3-3.2-3-5.5" /></g><g transform="translate(100.0 186.8) rotate(-2) scale(1.617) translate(-12 -12)" stroke-width="1.05"><path d="M11 21.73a2 2 0 0 0 2 0l7-4A2 2 0 0 0 21 16V8a2 2 0 0 0-1-1.73l-7-4a2 2 0 0 0-2 0l-7 4A2 2 0 0 0 3 8v8a2 2 0 0 0 1 1.73z" /> <path d="M12 22V12" /> <polyline points="3.29 7 12 12 20.71 7" /> <path d="m7.5 4.27 9 5.15" /></g><g transform="translate(199.0 162.9) rotate(18) scale(1.686) translate(-12 -12)" stroke-width="1.01"><path d="M14 18V6a2 2 0 0 0-2-2H4a2 2 0 0 0-2 2v11a1 1 0 0 0 1 1h2" /> <path d="M15 18H9" /> <path d="M19 18h2a1 1 0 0 0 1-1v-3.65a1 1 0 0 0-.22-.624l-3.48-4.35A1 1 0 0 0 17.52 8H14" /> <circle cx="17" cy="18" r="2" /> <circle cx="7" cy="18" r="2" /></g><g transform="translate(240.2 194.8) rotate(-7) scale(1.641) translate(-12 -12)" stroke-width="1.04"><path d="m11 17 2 2a1 1 0 1 0 3-3" /> <path d="m14 14 2.5 2.5a1 1 0 1 0 3-3l-3.88-3.88a3 3 0 0 0-4.24 0l-.88.88a1 1 0 1 1-3-3l2.81-2.81a5.79 5.79 0 0 1 7.06-.87l.47.28a2 2 0 0 0 1.42.25L21 4" /> <path d="m21 3 1 11h-2" /> <path d="M3 3 2 14l6.5 6.5a1 1 0 1 0 3-3" /> <path d="M3 4h8" /></g><g transform="translate(-14.8 195.5) rotate(-9) scale(1.591) translate(-12 -12)" stroke-width="1.07"><path d="M3.85 8.62a4 4 0 0 1 4.78-4.77 4 4 0 0 1 6.74 0 4 4 0 0 1 4.78 4.78 4 4 0 0 1 0 6.74 4 4 0 0 1-4.77 4.78 4 4 0 0 1-6.75 0 4 4 0 0 1-4.78-4.77 4 4 0 0 1 0-6.76Z" /> <path d="m16 9-5.5 5.5L8 12" /></g><g transform="translate(345.2 195.5) rotate(-9) scale(1.591) translate(-12 -12)" stroke-width="1.07"><path d="M3.85 8.62a4 4 0 0 1 4.78-4.77 4 4 0 0 1 6.74 0 4 4 0 0 1 4.78 4.78 4 4 0 0 1 0 6.74 4 4 0 0 1-4.77 4.78 4 4 0 0 1-6.75 0 4 4 0 0 1-4.78-4.77 4 4 0 0 1 0-6.76Z" /> <path d="m16 9-5.5 5.5L8 12" /></g><g transform="translate(36.6 237.3) rotate(15) scale(1.591) translate(-12 -12)" stroke-width="1.07"><path d="M13.832 16.568a1 1 0 0 0 1.213-.303l.355-.465A2 2 0 0 1 17 15h3a2 2 0 0 1 2 2v3a2 2 0 0 1-2 2A18 18 0 0 1 2 4a2 2 0 0 1 2-2h3a2 2 0 0 1 2 2v3a2 2 0 0 1-.8 1.6l-.468.351a1 1 0 0 0-.292 1.233 14 14 0 0 0 6.392 6.384" /></g><g transform="translate(122.1 231.3) rotate(1) scale(1.486) translate(-12 -12)" stroke-width="1.14"><path d="M20 10c0 4.993-5.539 10.193-7.399 11.799a1 1 0 0 1-1.202 0C9.539 20.193 4 14.993 4 10a8 8 0 0 1 16 0" /> <circle cx="12" cy="10" r="3" /></g><g transform="translate(185.5 256.2) rotate(7) scale(1.598) translate(-12 -12)" stroke-width="1.06"><path d="M8 2v3" /> <path d="M16 2v3" /> <rect x="3" y="3" width="18" height="18" rx="2" /> <path d="M3 9h18" /></g><g transform="translate(266.5 272.2) rotate(24) scale(1.492) translate(-12 -12)" stroke-width="1.14"><path d="M15 10V9" /> <path d="M16.472 15a6 6 0 01-8.943 0" /> <path d="M9 10V9" /> <circle cx="12" cy="12" r="10" /></g><g transform="translate(311.6 265.7) rotate(24) scale(1.311) translate(-12 -12)" stroke-width="1.30"><path d="M11.017 2.814a1 1 0 0 1 1.966 0l1.051 5.558a2 2 0 0 0 1.594 1.594l5.558 1.051a1 1 0 0 1 0 1.966l-5.558 1.051a2 2 0 0 0-1.594 1.594l-1.051 5.558a1 1 0 0 1-1.966 0l-1.051-5.558a2 2 0 0 0-1.594-1.594l-5.558-1.051a1 1 0 0 1 0-1.966l5.558-1.051a2 2 0 0 0 1.594-1.594z" /> <path d="M20 2v4" /> <path d="M22 4h-4" /> <circle cx="4" cy="20" r="2" /></g><g transform="translate(37.1 315.7) rotate(26) scale(1.551) translate(-12 -12)" stroke-width="1.10"><circle cx="12" cy="12" r="10" /> <path d="M16 8h-6a2 2 0 1 0 0 4h4a2 2 0 1 1 0 4H8" /> <path d="M12 18V6" /></g><g transform="translate(93.4 -18.6) rotate(-17) scale(1.644) translate(-12 -12)" stroke-width="1.03"><path d="m2.05 2.05 1.099-.028a1 1 0 0 1 1.008.815l2.69 14.347A1 1 0 0 0 7.83 18H18" /> <path d="M4.563 5h16.435a1 1 0 0 1 .981 1.204l-1.026 6.226A2 2 0 0 1 18.962 14H6.25" /> <circle cx="18" cy="20" r="2" /> <circle cx="8" cy="20" r="2" /></g><g transform="translate(93.4 341.4) rotate(-17) scale(1.644) translate(-12 -12)" stroke-width="1.03"><path d="m2.05 2.05 1.099-.028a1 1 0 0 1 1.008.815l2.69 14.347A1 1 0 0 0 7.83 18H18" /> <path d="M4.563 5h16.435a1 1 0 0 1 .981 1.204l-1.026 6.226A2 2 0 0 1 18.962 14H6.25" /> <circle cx="18" cy="20" r="2" /> <circle cx="8" cy="20" r="2" /></g><g transform="translate(168.3 308.4) rotate(-20) scale(1.190) translate(-12 -12)" stroke-width="1.43"><path d="M11 6a13 13 0 0 0 8.4-2.8A1 1 0 0 1 21 4v12a1 1 0 0 1-1.6.8A13 13 0 0 0 11 14H5a2 2 0 0 1-2-2V8a2 2 0 0 1 2-2z" /> <path d="M6 14a12 12 0 0 0 2.4 7.2 2 2 0 0 0 3.2-2.4A8 8 0 0 1 10 14" /> <path d="M8 6v8" /></g><g transform="translate(251.1 330.3) rotate(-15) scale(1.186) translate(-12 -12)" stroke-width="1.43"><path d="M15 5.88 14 10h5.83a2 2 0 0 1 1.92 2.56l-2.33 8A2 2 0 0 1 17.5 22H4a2 2 0 0 1-2-2v-8a2 2 0 0 1 2-2h2.76a2 2 0 0 0 1.79-1.11L12 2a3.13 3.13 0 0 1 3 3.88Z" /> <path d="M7 10v12" /></g><g transform="translate(329.9 -19.3) rotate(-2) scale(1.660) translate(-12 -12)" stroke-width="1.02"><path d="M2 9a3 3 0 0 1 0 6v2a2 2 0 0 0 2 2h16a2 2 0 0 0 2-2v-2a3 3 0 0 1 0-6V7a2 2 0 0 0-2-2H4a2 2 0 0 0-2 2Z" /> <path d="M13 5v2" /> <path d="M13 17v2" /> <path d="M13 11v2" /></g><g transform="translate(329.9 340.7) rotate(-2) scale(1.660) translate(-12 -12)" stroke-width="1.02"><path d="M2 9a3 3 0 0 1 0 6v2a2 2 0 0 0 2 2h16a2 2 0 0 0 2-2v-2a3 3 0 0 1 0-6V7a2 2 0 0 0-2-2H4a2 2 0 0 0-2 2Z" /> <path d="M13 5v2" /> <path d="M13 17v2" /> <path d="M13 11v2" /></g></g></svg>
