<svg xmlns="http://www.w3.org/2000/svg" viewBox="0 0 360 360" width="360" height="360"><g fill="none" stroke="#000" stroke-linecap="round" stroke-linejoin="round"><g transform="translate(36.1 54.4) rotate(-21) scale(1.371) translate(-12 -12)" stroke-width="1.24"><path d="M20.38 3.46 16 2a4 4 0 0 1-8 0L3.62 3.46a2 2 0 0 0-1.34 2.23l.58 3.47a1 1 0 0 0 .99.84H6v10c0 1.1.9 2 2 2h8a2 2 0 0 0 2-2V10h2.15a1 1 0 0 0 .99-.84l.58-3.47a2 2 0 0 0-1.34-2.23z" /></g><g transform="translate(123.6 29.3) rotate(-15) scale(1.288) translate(-12 -12)" stroke-width="1.32"><path d="m15 10.42 4.8-5.07" /> <path d="M19 18h3" /> <path d="M9.5 22 21.414 9.415A2 2 0 0 0 21.2 6.4l-5.61-4.208A1 1 0 0 0 14 3v2a2 2 0 0 1-1.394 1.906L8.677 8.053A1 1 0 0 0 8 9c-.155 6.393-2.082 9-4 9a2 2 0 0 0 0 4h14" /></g><g transform="translate(172.3 35.0) rotate(-8) scale(1.173) translate(-12 -12)" stroke-width="1.45"><path d="M4 16v-2.38C4 11.5 2.97 10.5 3 8c.03-2.72 1.49-6 4.5-6C9.37 2 10 3.8 10 5.5c0 3.11-2 5.66-2 8.68V16a2 2 0 1 1-4 0Z" /> <path d="M20 20v-2.38c0-2.12 1.03-3.12 1-5.62-.03-2.72-1.49-6-4.5-6C14.63 6 14 7.8 14 9.5c0 3.11 2 5.66 2 8.68V20a2 2 0 1 0 4 0Z" /> <path d="M16 17h4" /> <path d="M4 13h4" /></g><g transform="translate(243.8 53.5) rotate(-22) scale(1.279) translate(-12 -12)" stroke-width="1.33"><circle cx="6" cy="15" r="4" /> <circle cx="18" cy="15" r="4" /> <path d="M14 15a2 2 0 0 0-2-2 2 2 0 0 0-2 2" /> <path d="M2.5 13 5 7c.7-1.3 1.4-2 3-2" /> <path d="M21.5 13 19 7c-.7-1.3-1.5-2-3-2" /></g><g transform="translate(313.1 21.4) rotate(-2) scale(1.380) translate(-12 -12)" stroke-width="1.23"><path d="M12 10v2.2l1.6 1" /> <path d="m16.13 7.66-.81-4.05a2 2 0 0 0-2-1.61h-2.68a2 2 0 0 0-2 1.61l-.78 4.05" /> <path d="m7.88 16.36.8 4a2 2 0 0 0 2 1.61h2.72a2 2 0 0 0 2-1.61l.81-4.05" /> <circle cx="12" cy="12" r="6" /></g><g transform="translate(42.6 99.0) rotate(24) scale(1.546) translate(-12 -12)" stroke-width="1.10"><path d="M4 10a4 4 0 0 1 4-4h8a4 4 0 0 1 4 4v10a2 2 0 0 1-2 2H6a2 2 0 0 1-2-2z" /> <path d="M8 10h8" /> <path d="M8 18h8" /> <path d="M8 22v-6a2 2 0 0 1 2-2h4a2 2 0 0 1 2 2v6" /> <path d="M9 6V4a2 2 0 0 1 2-2h2a2 2 0 0 1 2 2v2" /></g><g transform="translate(99.3 118.7) rotate(23) scale(1.521) translate(-12 -12)" stroke-width="1.12"><path d="M12 13v7a2 2 0 0 0 4 0" /> <path d="M12 2v2" /> <path d="M20.992 13a1 1 0 0 0 .97-1.274 10.284 10.284 0 0 0-19.923 0A1 1 0 0 0 3 13z" /></g><g transform="translate(172.2 94.5) rotate(-24) scale(1.611) translate(-12 -12)" stroke-width="1.06"><path d="M14 18a2 2 0 0 0-4 0" /> <path d="m19 11-2.11-6.657a2 2 0 0 0-2.752-1.148l-1.276.61A2 2 0 0 1 12 4H8.5a2 2 0 0 0-1.925 1.456L5 11" /> <path d="M2 11h20" /> <circle cx="17" cy="18" r="3" /> <circle cx="7" cy="18" r="3" /></g><g transform="translate(248.6 86.8) rotate(-11) scale(1.491) translate(-12 -12)" stroke-width="1.14"><path d="M21.42 10.922a1 1 0 0 0-.019-1.838L12.83 5.18a2 2 0 0 0-1.66 0L2.6 9.08a1 1 0 0 0 0 1.832l8.57 3.908a2 2 0 0 0 1.66 0z" /> <path d="M22 10v6" /> <path d="M6 12.5V16a6 3 0 0 0 12 0v-3.5" /></g><g transform="translate(327.0 115.9) rotate(14) scale(1.230) translate(-12 -12)" stroke-width="1.38"><path d="M11.562 3.266a.5.5 0 0 1 .876 0L15.39 8.87a1 1 0 0 0 1.516.294L21.183 5.5a.5.5 0 0 1 .798.519l-2.834 10.246a1 1 0 0 1-.956.734H5.81a1 1 0 0 1-.957-.734L2.02 6.02a.5.5 0 0 1 .798-.519l4.276 3.664a1 1 0 0 0 1.516-.294z" /> <path d="M5 21h14" /></g><g transform="translate(49.7 168.5) rotate(-17) scale(1.220) translate(-12 -12)" stroke-width="1.39"><path d="M10.5 3 8 9l4 13 4-13-2.5-6" /> <path d="M17 3a2 2 0 0 1 1.6.8l3 4a2 2 0 0 1 .013 2.382l-7.99 10.986a2 2 0 0 1-3.247 0l-7.99-10.986A2 2 0 0 1 2.4 7.8l2.998-3.997A2 2 0 0 1 7 3z" /> <path d="M2 9h20" /></g><g transform="translate(91.7 177.0) rotate(-2) scale(1.170) translate(-12 -12)" stroke-width="1.45"><circle cx="6" cy="6" r="3" /> <path d="M8.12 8.12 12 12" /> <path d="M20 4 8.12 15.88" /> <circle cx="6" cy="18" r="3" /> <path d="M14.8 14.8 20 20" /></g><g transform="translate(174.1 181.1) rotate(15) scale(1.195) translate(-12 -12)" stroke-width="1.42"><path d="M21.3 15.3a2.4 2.4 0 0 1 0 3.4l-2.6 2.6a2.4 2.4 0 0 1-3.4 0L2.7 8.7a2.41 2.41 0 0 1 0-3.4l2.6-2.6a2.41 2.41 0 0 1 3.4 0Z" /> <path d="m14.5 12.5 2-2" /> <path d="m11.5 9.5 2-2" /> <path d="m8.5 6.5 2-2" /> <path d="m17.5 15.5 2-2" /></g><g transform="translate(267.1 184.7) rotate(-25) scale(1.557) translate(-12 -12)" stroke-width="1.09"><path d="M12.586 2.586A2 2 0 0 0 11.172 2H4a2 2 0 0 0-2 2v7.172a2 2 0 0 0 .586 1.414l8.704 8.704a2.426 2.426 0 0 0 3.42 0l6.58-6.58a2.426 2.426 0 0 0 0-3.42z" /> <circle cx="7.5" cy="7.5" r=".5" fill="currentColor" /></g><g transform="translate(305.7 198.3) rotate(7) scale(1.648) translate(-12 -12)" stroke-width="1.03"><path d="M16 10a4 4 0 0 1-8 0" /> <path d="M3.103 6.034h17.794" /> <path d="M3.4 5.467a2 2 0 0 0-.4 1.2V20a2 2 0 0 0 2 2h14a2 2 0 0 0 2-2V6.667a2 2 0 0 0-.4-1.2l-2-2.667A2 2 0 0 0 17 2H7a2 2 0 0 0-1.6.8z" /></g><g transform="translate(36.6 260.4) rotate(-20) scale(1.624) translate(-12 -12)" stroke-width="1.05"><path d="M11.017 2.814a1 1 0 0 1 1.966 0l1.051 5.558a2 2 0 0 0 1.594 1.594l5.558 1.051a1 1 0 0 1 0 1.966l-5.558 1.051a2 2 0 0 0-1.594 1.594l-1.051 5.558a1 1 0 0 1-1.966 0l-1.051-5.558a2 2 0 0 0-1.594-1.594l-5.558-1.051a1 1 0 0 1 0-1.966l5.558-1.051a2 2 0 0 0 1.594-1.594z" /> <path d="M20 2v4" /> <path d="M22 4h-4" /> <circle cx="4" cy="20" r="2" /></g><g transform="translate(114.4 244.7) rotate(2) scale(1.500) translate(-12 -12)" stroke-width="1.13"><path d="M11.525 2.295a.53.53 0 0 1 .95 0l2.31 4.679a2.123 2.123 0 0 0 1.595 1.16l5.166.756a.53.53 0 0 1 .294.904l-3.736 3.638a2.123 2.123 0 0 0-.611 1.878l.882 5.14a.53.53 0 0 1-.771.56l-4.618-2.428a2.122 2.122 0 0 0-1.973 0L6.396 21.01a.53.53 0 0 1-.77-.56l.881-5.139a2.122 2.122 0 0 0-.611-1.879L2.16 9.795a.53.53 0 0 1 .294-.906l5.165-.755a2.122 2.122 0 0 0 1.597-1.16z" /></g><g transform="translate(184.4 232.6) rotate(6) scale(1.422) translate(-12 -12)" stroke-width="1.20"><path d="M2 9.5a5.5 5.5 0 0 1 9.591-3.676.56.56 0 0 0 .818 0A5.49 5.49 0 0 1 22 9.5c0 2.29-1.5 4-3 5.5l-5.492 5.313a2 2 0 0 1-3 .019L5 15c-1.5-1.5-3-3.2-3-5.5" /></g><g transform="translate(232.2 242.1) rotate(24) scale(1.460) translate(-12 -12)" stroke-width="1.16"><path d="M10 16c.5.3 1.2.5 2 .5s1.5-.2 2-.5" /> <path d="M15 12h.01" /> <path d="M19.38 6.813A9 9 0 0 1 20.8 10.2a2 2 0 0 1 0 3.6 9 9 0 0 1-17.6 0 2 2 0 0 1 0-3.6A9 9 0 0 1 12 3c2 0 3.5 1.1 3.5 2.5s-.9 2.5-2 2.5c-.8 0-1.5-.4-1.5-1" /> <path d="M9 12h.01" /></g><g transform="translate(310.6 244.8) rotate(-5) scale(1.643) translate(-12 -12)" stroke-width="1.03"><path d="M18 11c-1.5 0-2.5.5-3 2" /> <path d="M4 6a2 2 0 0 0-2 2v4a5 5 0 0 0 5 5 8 8 0 0 1 5 2 8 8 0 0 1 5-2 5 5 0 0 0 5-5V8a2 2 0 0 0-2-2h-3a8 8 0 0 0-5 2 8 8 0 0 0-5-2z" /> <path d="M6 11c1.5 0 2.5.5 3 2" /></g><g transform="translate(20.8 320.6) rotate(14) scale(1.393) translate(-12 -12)" stroke-width="1.22"><line x1="19" x2="5" y1="5" y2="19" /> <circle cx="6.5" cy="6.5" r="2.5" /> <circle cx="17.5" cy="17.5" r="2.5" /></g><g transform="translate(124.4 332.3) rotate(-8) scale(1.551) translate(-12 -12)" stroke-width="1.10"><path d="M2 9a3 3 0 0 1 0 6v2a2 2 0 0 0 2 2h16a2 2 0 0 0 2-2v-2a3 3 0 0 1 0-6V7a2 2 0 0 0-2-2H4a2 2 0 0 0-2 2Z" /> <path d="M13 5v2" /> <path d="M13 17v2" /> <path d="M13 11v2" /></g><g transform="translate(180.4 302.7) rotate(-22) scale(1.289) translate(-12 -12)" stroke-width="1.32"><path d="M18 11V6a2 2 0 0 0-2-2a2 2 0 0 0-2 2" /> <path d="M14 10V4a2 2 0 0 0-2-2a2 2 0 0 0-2 2v2" /> <path d="M10 10.5V6a2 2 0 0 0-2-2a2 2 0 0 0-2 2v8" /> <path d="M18 8a2 2 0 1 1 4 0v6a8 8 0 0 1-8 8h-2c-2.8 0-4.5-.86-5.99-2.34l-3.6-3.6a2 2 0 0 1 2.83-2.82L7 15" /></g><g transform="translate(265.7 -22.7) rotate(17) scale(1.616) translate(-12 -12)" stroke-width="1.05"><path d="m15 11-1 9" /> <path d="m19 11-4-7" /> <path d="M2 11h20" /> <path d="m3.5 11 1.6 7.4a2 2 0 0 0 2 1.6h9.8a2 2 0 0 0 2-1.6l1.7-7.4" /> <path d="M4.5 15.5h15" /> <path d="m5 11 4-7" /> <path d="m9 11 1 9" /></g><g transform="translate(265.7 337.3) rotate(17) scale(1.616) translate(-12 -12)" stroke-width="1.05"><path d="m15 11-1 9" /> <path d="m19 11-4-7" /> <path d="M2 11h20" /> <path d="m3.5 11 1.6 7.4a2 2 0 0 0 2 1.6h9.8a2 2 0 0 0 2-1.6l1.7-7.4" /> <path d="M4.5 15.5h15" /> <path d="m5 11 4-7" /> <path d="m9 11 1 9" /></g><g transform="translate(306.6 -15.7) rotate(10) scale(1.446) translate(-12 -12)" stroke-width="1.18"><path d="M21 8a2 2 0 0 0-1-1.73l-7-4a2 2 0 0 0-2 0l-7 4A2 2 0 0 0 3 8v8a2 2 0 0 0 1 1.73l7 4a2 2 0 0 0 2 0l7-4A2 2 0 0 0 21 16Z" /> <path d="m3.3 7 8.7 5 8.7-5" /> <path d="M12 22V12" /></g><g transform="translate(306.6 344.3) rotate(10) scale(1.446) translate(-12 -12)" stroke-width="1.18"><path d="M21 8a2 2 0 0 0-1-1.73l-7-4a2 2 0 0 0-2 0l-7 4A2 2 0 0 0 3 8v8a2 2 0 0 0 1 1.73l7 4a2 2 0 0 0 2 0l7-4A2 2 0 0 0 21 16Z" /> <path d="m3.3 7 8.7 5 8.7-5" /> <path d="M12 22V12" /></g></g></svg>
